# xmcd
# Track frame offsets:
# 150
# 11577
# 22880
# 36600
# 47895
# 59079
# 71429
# 82955
# 96421
# 112049
# 122387
# 134822
# 150766
# 166304
# 179882
# 194549
#
# Disc length: 2746 seconds
# Revision: 1
# Processed by: cddbd v1.5.2PL0 Copyright (c) Steve Scherf et al.
# Submitted via: VisiTrax 2.11.3.279 - For more info visit www.synapsa.com
#
DISCID=e30ab810
DTITLE=Slim Dusty - Old Time Drover's Lament
DYEAR=1997
DGENRE=Australian Country
TTITLE0=Slim Dusty - When You're Short Of A Smoke
TTITLE1=Slim Dusty With Joy Mckean - Keep The Lovelight Shining (with Joy McKe
TTITLE1=an)
TTITLE2=Slim Dusty - Loves Game Of Let's Pretend
TTITLE3=Slim Dusty With Joy McKean - I Love You The Best Of All (with Joy McKe
TTITLE3=an)
TTITLE4=Slim Dusty - When You're Short Of A Quid
TTITLE5=Slim Dusty - Where The Golden Sliprails Are Down
TTITLE6=Slim Dusty - Middleton's Rouseabout
TTITLE7=Slim Dusty - The Old Time Drover's Lament
TTITLE8=Slim Dusty - Trumby
TTITLE9=Slim Dusty - Grasshopper Loose In Queensland
TTITLE10=Slim Dusty - If We Only Had Old Ireland Over Here
TTITLE11=Slim Dusty - Sniff The Digger's Dog
TTITLE12=Slim Dusty - Namatjira
TTITLE13=Slim Dusty - Darwin (Big Heart Of The North)
TTITLE14=Slim Dusty - The Frog
TTITLE15=Slim Dusty - The Min Min Light
EXTD=EMI Music Australia
EXTT0=
EXTT1=
EXTT2=
EXTT3=
EXTT4=
EXTT5=
EXTT6=
EXTT7=
EXTT8=
EXTT9=
EXTT10=
EXTT11=
EXTT12=
EXTT13=
EXTT14=
EXTT15=
PLAYORDER=
